<svg width="139" height="121" viewBox="0 0 139 121" fill="none" xmlns="http://www.w3.org/2000/svg">
<path d="M67 27C47.68 27 32 42.68 32 62C32 81.32 47.68 97 67 97C86.32 97 102 81.32 102 62C102 42.68 86.32 27 67 27ZM83.24 50.8C82.715 56.33 80.44 69.77 79.285 75.965C78.795 78.59 77.815 79.465 76.905 79.57C74.875 79.745 73.335 78.24 71.375 76.945C68.295 74.915 66.545 73.655 63.57 71.695C60.105 69.42 62.345 68.16 64.34 66.13C64.865 65.605 73.825 57.45 74 56.715C74.0243 56.6037 74.0211 56.4881 73.9906 56.3783C73.9601 56.2685 73.9032 56.1678 73.825 56.085C73.615 55.91 73.335 55.98 73.09 56.015C72.775 56.085 67.875 59.34 58.32 65.78C56.92 66.725 55.66 67.215 54.54 67.18C53.28 67.145 50.9 66.48 49.115 65.885C46.91 65.185 45.195 64.8 45.335 63.575C45.405 62.945 46.28 62.315 47.925 61.65C58.145 57.205 64.935 54.265 68.33 52.865C78.06 48.805 80.055 48.105 81.385 48.105C81.665 48.105 82.33 48.175 82.75 48.525C83.1 48.805 83.205 49.19 83.24 49.47C83.205 49.68 83.275 50.31 83.24 50.8Z" fill="#FAEBD7"/>
<path d="M15.0042 58.9694C16.3936 58.9694 17.9219 59.7233 19.1815 60.2547C20.3235 60.7365 21.5158 61.1481 22.6914 61.54C23.0461 61.6582 23.8731 61.7014 24.0755 62.0838C24.5884 63.0526 22.1933 65.3668 21.7274 66.0385C20.8982 67.234 20.4778 68.6668 19.6758 69.8698" stroke="#FAEBD7" stroke-width="3" stroke-linecap="round"/>
<path d="M28.1292 28.0479C30.8501 28.0479 33.5273 28.955 35.9152 30.1489C36.5684 30.4755 36.0172 29.7089 35.9028 29.4444C35.4112 28.3075 35.0253 27.103 34.8523 25.8728C34.7173 24.9124 34.8029 23.9018 34.8029 22.9314" stroke="#FAEBD7" stroke-width="3" stroke-linecap="round"/>
<path d="M73.5104 14.2555C73.6318 15.3478 74.6542 16.8198 75.0676 17.8642C75.2293 18.2727 76.2279 22.2236 76.6743 21.9426C78.2062 20.9781 80.4778 19.7885 81.5189 18.3092C81.9236 17.734 82.3963 17.3699 83.0761 17.3699" stroke="#FAEBD7" stroke-width="3" stroke-linecap="round"/>
<path d="M37.9173 103.016C39.5751 102.832 41.8081 101.858 43.3551 101.224C43.6731 101.093 46.7522 99.0734 46.9886 99.2835C47.5491 99.7817 47.2615 102.088 47.3717 102.793C47.537 103.851 47.9279 105.08 47.9279 106.13" stroke="#FAEBD7" stroke-width="3" stroke-linecap="round"/>
<path d="M45.9258 101.904C43.9464 105.177 42.3297 108.607 40.6362 112.038C39.795 113.742 38.8787 115.48 38.1892 117.253C37.9537 117.859 37.8308 118.495 37.4724 119.033" stroke="#FAEBD7" stroke-width="3" stroke-linecap="round"/>
<path d="M23.2351 62.9736C21.8254 63.2086 20.4217 63.7263 18.9961 63.987C16.3521 64.4707 13.6867 65.1049 11.1236 65.915C7.83009 66.956 5.21855 68.5336 2.32418 70.3147" stroke="#FAEBD7" stroke-width="3" stroke-linecap="round"/>
<path d="M34.358 28.9378C33.612 28.5428 33.3904 27.9019 32.9738 27.2075C31.8487 25.3323 30.8675 23.3763 29.7853 21.4731C27.9214 18.1952 26.3495 15.1698 26.3495 11.3636" stroke="#FAEBD7" stroke-width="3" stroke-linecap="round"/>
<path d="M77.7371 18.4822C78.3971 18.3997 78.862 13.6666 78.9606 13.1185C79.6655 9.20271 79.955 5.09077 81.9638 1.57544" stroke="#FAEBD7" stroke-width="3" stroke-linecap="round"/>
<path d="M97.0909 100.569C96.6542 99.641 96.3408 98.6008 96.028 97.6275C95.7137 96.6496 95.6955 94.9691 95.0393 94.1671C94.5884 93.6159 96.8467 94.1219 97.0909 94.1671C98.8729 94.4971 101.285 94.6573 102.875 95.4524" stroke="#FAEBD7" stroke-width="3" stroke-linecap="round"/>
<path d="M96.646 95.0074C97.9797 95.7796 99.1294 97.2201 100.156 98.3443C102.329 100.725 104.511 102.98 106.212 105.735C107.189 107.319 108.035 108.932 108.881 110.579C109.16 111.123 109.755 111.438 109.993 111.914" stroke="#FAEBD7" stroke-width="3" stroke-linecap="round"/>
<path d="M114.887 42.0626C114.887 42.8946 114.054 43.5171 113.652 44.1883C113.245 44.8658 109.579 49.3771 110.043 49.7992C110.361 50.0887 111.206 50.0651 111.6 50.1205C112.836 50.2944 114.073 50.4269 115.308 50.6149C116.435 50.7865 117.389 51.0534 118.447 51.4058" stroke="#FAEBD7" stroke-width="3" stroke-linecap="round"/>
<path d="M112.885 48.069C114.625 47.924 116.373 47.3165 118.113 47.068C121.232 46.6223 124.415 46.3113 127.567 46.2894C129.746 46.2742 131.926 46.2894 134.105 46.2894C135.138 46.2894 136.153 46.1852 137.133 46.5118" stroke="#FAEBD7" stroke-width="3" stroke-linecap="round"/>
</svg>
